<?xml version="1.0" encoding="UTF-8"?><svg id="_레이어_1" xmlns="http://www.w3.org/2000/svg" viewBox="0 0 384 384"><defs><style>.cls-1{fill:#fefefe;}.cls-2{fill:#2662fe;}</style></defs><path class="cls-1" d="M384,384H0V0H384V384ZM39.491215650803497,227.967447174059998c.260613379346069-1.382633240220457,.377527691391151-2.240908611485793,.586245607428282-3.076217566045671,12.857143243589235-51.455432311051482,25.719835166712983-102.909479309828384,38.587941273270189-154.362175342917908,1.866204929512605-7.461955941060296,5.911819004645622-10.624543720279689,13.660854736801411-10.625476802513731,66.381878000835968-.007979856651218,132.7637502784346-.007539075473687,199.145622556032322-.000749900445044,7.963474024876632,.000818593615804,11.872285534862385,3.089360859353292,13.822833827240174,10.876676278554442,12.702727412566674,50.71365483270165,25.421479892380376,101.423319737077691,38.073613878352262,152.149619837601676,1.716742561240608,6.882895410581114,4.235654202970181,13.822233709677676,4.41227333698771,20.785454334420137,.567424738270347,22.367572542076232,.227029416986625,44.758638148501632,.202396599332133,67.140590460958265-.009019823564813,8.192278833212185-4.895864080601314,13.141278309467452-13.022267253474638,13.142514786537504-95.384863127917924,.014494258997729-190.769737702312341,.015387270215797-286.154606553468511-.00219818145888-7.885898391304181-.001442556582333-12.829491417730424-5.010182193540459-12.869353772507566-12.914751130534569-.037833466799384-7.502164343588447,.037661769650185-15.004992721158487-.022566728626771-22.506859394341518-.058288320493375-7.260249894439767-5.255732720211199-12.62170606473228-12.06882726141157-12.580719139605208-6.823084453658339,.041055618297833-11.86556216066765,5.381812246516347-11.912897633857938,12.71984570780478-.04677745745721,7.251960918520126-.022611083724769,14.504494280128711-.008317296063979,21.756729971331879,.043352099332878,21.997568227472584,15.538135563238029,37.537909724882411,37.526462280959095,37.541779440160099,95.009075300970835,.016692440456609,190.01815060194167,.01689851996889,285.027225902911596-.000068693170761,22.010773258343761-.003938408448448,37.488241064764225-15.516894228509045,37.51420167370452-37.549587563886234,.026830541162781-22.75706281940802,.029669267361896-45.51426302515938-.029463230781403-68.271188458225879-.006089525553762-2.347474616817635-.248525900051391-4.757803484737451-.814462596363228-7.031089477301066-14.229366890347592-57.159175101608525-28.474758847944031-114.314469039078176-42.819986974489439-171.444644173830056-4.280272568777946-17.04634194760456-18.251864805977675-27.805681704118797-35.860895485810033-27.814133826318539-67.006941472052858-.032154128274669-134.013882944105717-.032520491850846-201.020807246443837,.000168870710695-17.746245318136062,.008658201712024-31.639721075745001,10.9442903939389-35.954178546903677,28.182555335783036-14.238933283171718,56.891197318646846-28.45994138397964,113.786888315536999-42.672514862339085,170.684663005269613-2.582838067354714,10.339993709909322,2.819961130493539,17.205784521009264,13.495520397906148,17.208303270599572,29.003002296796694,.006869317059682,58.006267862554523,.066494989145212,87.008795130571343-.050924537143146,5.867967552771006-.023744939306198,9.753405357530028,2.502034250679571,12.172217561347679,7.615256200127988,.851297358078227,1.799600785792791,1.490605969428543,3.699516498392768,2.225984858926495,5.553911536606392,5.442753839843135,13.724735202864395,18.366146428404136,22.781471792695811,33.116224985998088,22.863972290593665,20.751477688150771,.11606856059916,41.504557883026791,.11567929929879,62.256035571177563-.000412159024563,14.614678185831508-.081767770743681,27.431641434917765-8.984471374355053,32.940212515239182-22.54409109280823,.657165114855161-1.617655474583444,1.228252725639322-3.271077193328892,1.911676057827208-4.877123522079273,2.44306728774427-5.741306506015462,6.477446646089447-8.743816300000617,13.044885491248351-8.628457568831436,13.372254722155049,.234907745745659,26.751629152757232,.098254131689828,40.127890141724492,.058732660867463,7.53049960080898-.022233689553104,12.952169030746518-5.205018923101306,12.861375578313528-12.164163753055618-.088549943016915-6.787137130757401-5.469675952817852-11.804852675340953-12.823991385721456-11.824361535793287-14.001353076373562-.037163005297771-28.003301369531982-.079134532537864-42.004196586842227,.010235282419671-15.126610405519386,.096559700146827-28.146519684814848,9.207907360610989-33.576636614485324,23.295205117930891-.717304902938849,1.860920889419504-1.393631419630765,3.748448933587497-2.268531412468292,5.535662050948304-2.360149011215981,4.821207281205716-6.12807728714688,7.230185183438152-11.659152140475271,7.201929392595048-19.876531909407277-.101551403877238-39.754071108754033-.083691179521338-59.630854840645952-.009594146160453-5.036850332948234,.018799031022354-8.63021984065017-2.13278556095247-11.000441751278231-6.430436393529817-.898994826092348-1.630043143015428-1.600400573026491-3.382383027430478-2.26154906173997-5.128334446981171-5.941522611435175-15.690344484288289-18.558218305837727-24.459943620990089-35.371833326378692-24.480162310870583-20.127049496386462-.024202893777328-40.254150501918048-.005838919501912-60.381234337734895-.005907612672672-4.363259524164278,0-8.726519048328555,.000022897724193-13.510923062987786,.000022897724193ZM179.082039479993,125.254705104843197c.29156465208689,.172236676431567,.583129304172871,.34448480172432,.874693956259762,.516721478154977,0,1.318760040418056-.000011446476492,2.637508631974015,0,3.956268672392071,.00005723238246,28.240907321996929,.027379972038943,56.481871888302521-.031077183983143,84.722653272819116-.008172784296221,3.946857708020616,.837836301590869,7.458246509848323,3.812088782672618,10.170069703555782,3.7563673345594,3.424904100036656,8.147567708117094,4.417932574306178,12.833320264154281,2.369593817751593,4.92356455398658-2.152248625956418,7.392249056372748-6.128071954246479,7.392020126841089-11.561472771887566-.001259112426851-28.615628567648855-.000206036578675-57.231268584158897,.000068678860771-85.846897151807752,0-1.299903765087038,.000022892952984-2.599807530173166,.000022892952984-5.040395739745691,5.699841704394203,5.820864646439077,10.476067211518966,10.900037680991773,15.476529195339026,15.747840668083882,4.896734012823799,4.747224736463977,12.200684948664275,4.621447541086127,16.851136570852759-.023538859793916,4.53328548765603-4.527956135892964,4.897649730952253-11.892505161034933,.302667734393253-16.579508884601637-12.070080650599266-12.311819723271583-24.268224481458674-24.501170972214823-36.581931940121649-36.569295948333092-4.518519532837672-4.428408282823511-11.508367704155717-4.488812477508873-15.972630937883878-.11261672877572-12.490601308119949,12.244179847947635-24.916552916373803,24.561643860070035-37.082806863410951,37.126460530680561-6.125467490480332,6.326137262825796-3.088385299311994,16.760629877764586,5.302328464851598,19.343928149269232,4.705314584555708,1.448658826032442,8.898571038180307,.249768368320474,12.344017728713879-3.265421455615069,4.856808702425042-4.955078821853931,9.655824144471808-9.96685240718125,14.4795525295076-14.95438875214677Z"/><path class="cls-2" d="M39.491215650803497,227.967447174059998c4.784404014659231,0,9.147663538823508-.000022897724193,13.510923062987786-.000022897724193,20.127083835816848,.000068693170761,40.254184841348433-.018295281104656,60.381234337734895,.005907612672672,16.813615020540965,.020218689880494,29.430310714943516,8.789817826582293,35.371833326378692,24.480162310870583,.661148488713479,1.745951419550693,1.362554235647622,3.498291303965743,2.26154906173997,5.128334446981171,2.370221910628061,4.297650832577347,5.963591418329997,6.449235424552171,11.000441751278231,6.430436393529817,19.876783731891919-.074097033360886,39.754322931238676-.091957257716786,59.630854840645952,.009594146160453,5.531074853328391,.028255790843104,9.29900312925929-2.380722111389332,11.659152140475271-7.201929392595048,.874899992837527-1.787213117360807,1.551226509529442-3.6747411615288,2.268531412468292-5.535662050948304,5.430116929670476-14.087297757319902,18.450026208965937-23.198645417784064,33.576636614485324-23.295205117930891,14.000895217310244-.089369814957536,28.002843510468665-.047398287717442,42.004196586842227-.010235282419671,7.354315432903604,.019508860452333,12.735441442704541,5.037224405035886,12.823991385721456,11.824361535793287,.09079345243299,6.959144829954312-5.330875977504547,12.141930063502514-12.861375578313528,12.164163753055618-13.37626098896726,.039521470822365-26.755635419569444,.176175084878196-40.127890141724492-.058732660867463-6.567438845158904-.115358731169181-10.601818203504081,2.887151062815974-13.044885491248351,8.628457568831436-.683423332187886,1.606046328750381-1.254510942972047,3.25946804749583-1.911676057827208,4.877123522079273-5.508571080321417,13.559619718453177-18.325534329407674,22.462323322064549-32.940212515239182,22.54409109280823-20.751477688150771,.116091458323353-41.504557883026791,.116480719623723-62.256035571177563,.000412159024563-14.750078557593952-.082500497897854-27.673471146154952-9.139237087729271-33.116224985998088-22.863972290593665-.735378889497952-1.854395038213625-1.374687500848268-3.754310750813602-2.225984858926495-5.553911536606392-2.418812203817652-5.113221949448416-6.304250008576673-7.639001139434185-12.172217561347679-7.615256200127988-29.00252726801682,.117419526288359-58.005792833774649,.057793854202828-87.008795130571343,.050924537143146-10.675559267412609-.002518749590308-16.078358465260862-6.86830956069025-13.495520397906148-17.208303270599572,14.212573478359445-56.897774689732614,28.433581579167367-113.793465686622767,42.672514862339085-170.684663005269613,4.314457471158676-17.238264941844136,18.207933228767615-28.173897134071012,35.954178546903677-28.182555335783036,67.00692430233812-.032689362561541,134.013865774390979-.032322998985364,201.020807246443837-.000168870710695,17.609030679832358,.008452122199742,31.580622917032088,10.767791878713979,35.860895485810033,27.814133826318539,14.345228126545408,57.13017513475188,28.590620084141847,114.285469072221531,42.819986974489439,171.444644173830056,.565936696311837,2.273285992563615,.808373070809466,4.683614860483431,.814462596363228,7.031089477301066,.059132498143299,22.756925433066499,.056293771944183,45.514125638817859,.029463230781403,68.271188458225879-.025960608940295,22.032693335377189-15.503428415360759,37.545649155437786-37.51420167370452,37.549587563886234-95.009075300969926,.016967213139651-190.018150601940761,.016761133627369-285.027225902911596,.000068693170761-21.988326717721066-.003869715277688-37.483110181626216-15.544211212687514-37.526462280959095-37.541779440160099-.01429378766079-7.252235691203168-.038460161393232-14.504769052811753,.008317296063979-21.756729971331879,.047335473190287-7.338033461288433,5.089813180199599-12.678790089506947,11.912897633857938-12.71984570780478,6.813094541200371-.040986925127072,12.010538940918195,5.320469245165441,12.06882726141157,12.580719139605208,.060228498276956,7.501866673183031-.015266738172613,15.004695050753071,.022566728626771,22.506859394341518,.039862354777142,7.90456893699411,4.983455381203385,12.913308573952236,12.869353772507566,12.914751130534569,95.38486885115617,.017585451674677,190.769743425550587,.016692440456609,286.154606553468511,.00219818145888,8.126403172873324-.001236477070051,13.013247429909825-4.950235953325318,13.022267253474638-13.142514786537504,.024632817654492-22.381952312456633,.365028138938214-44.773017918882033-.202396599332133-67.140590460958265-.176619134017528-6.963220624742462-2.695530775747102-13.902558923839024-4.41227333698771-20.785454334420137-12.652133985971886-50.726300100523986-25.370886465785588-101.435965004900027-38.073613878352262-152.149619837601676-1.950548292377789-7.78731541920115-5.859359802363542-10.875857684938637-13.822833827240174-10.876676278554442-66.381872277597722-.006789175028644-132.763744555196354-.007229956206174-199.145622556032322,.000749900445044-7.749035732155789,.000933082234042-11.794649807288806,3.163520861453435-13.660854736801411,10.625476802513731-12.868106106557207,51.452696033089524-25.730798029680955,102.906743031866426-38.587941273270189,154.362175342917908-.208717916037131,.835308954559878-.325632228082213,1.693584325825213-.586245607428282,3.076217566045671Z"/><path class="cls-2" d="M179.082039479993,125.254705104843197c-4.823728385035793,4.98753634496552-9.622743827082559,9.999309930292839-14.4795525295076,14.95438875214677-3.445446690533572,3.515189823935543-7.638703144158171,4.714080281647512-12.344017728713879,3.265421455615069-8.390713764163593-2.583298271504646-11.427795955331931-13.017790886443436-5.302328464851598-19.343928149269232,12.166253947037148-12.564816670610526,24.592205555291002-24.882280682732926,37.082806863410951-37.126460530680561,4.464263233728161-4.376195748733153,11.454111405046206-4.315791554047792,15.972630937883878,.11261672877572,12.313707458662975,12.06812497611827,24.511851289522383,24.257476225061509,36.581931940121649,36.569295948333092,4.594981996559,4.687003723566704,4.230617753262777,12.051552748708673-.302667734393253,16.579508884601637-4.650451622188484,4.644986400880043-11.95440255802896,4.770763596257893-16.851136570852759,.023538859793916-5.00046198382006-4.847802987092109-9.776687490944823-9.926976021644805-15.476529195339026-15.747840668083882,0,2.440588209572525-.000022892952984,3.740491974658653-.000022892952984,5.040395739745691-.000274715439446,28.615628567648855-.001327791287622,57.231268584158897-.000068678860771,85.846897151807752,.000228929531659,5.433400817641086-2.468455572854509,9.409224145931148-7.392020126841089,11.561472771887566-4.685752556037187,2.048338756554585-9.076952929594881,1.055310282285063-12.833320264154281-2.369593817751593-2.974252481081749-2.71182319370746-3.820261566968838-6.223211995535166-3.812088782672618-10.170069703555782,.058457156022087-28.240781384516595,.031134416365603-56.481745950822187,.031077183983143-84.722653272819116-.000011446476492-1.318760040418056,0-2.637508631974015,0-3.956268672392071-.29156465208689-.172236676430657-.583129304172871-.344484801723411-.874693956259762-.516721478154977Z"/></svg>