<?xml version="1.0" encoding="UTF-8"?><svg id="_레이어_1" xmlns="http://www.w3.org/2000/svg" viewBox="0 0 384 384"><defs><style>.cls-1{fill:#fefefe;}.cls-2{fill:#2662fe;}</style></defs><path class="cls-1" d="M384,384H0V0H384V384ZM39.49,227.97c.26-1.38,.38-2.24,.59-3.08,12.86-51.46,25.72-102.91,38.59-154.36,1.87-7.46,5.91-10.62,13.66-10.63,66.38,0,132.76,0,199.15,0,7.96,0,11.87,3.09,13.82,10.88,12.7,50.71,25.42,101.42,38.07,152.15,1.72,6.88,4.24,13.82,4.41,20.79,.57,22.37,.23,44.76,.2,67.14,0,8.19-4.9,13.14-13.02,13.14-95.38,.01-190.77,.02-286.15,0-7.89,0-12.83-5.01-12.87-12.91-.04-7.5,.04-15-.02-22.51-.06-7.26-5.26-12.62-12.07-12.58-6.82,.04-11.87,5.38-11.91,12.72-.05,7.25-.02,14.5,0,21.76,.04,22,15.54,37.54,37.53,37.54,95.01,.02,190.02,.02,285.03,0,22.01,0,37.49-15.52,37.51-37.55,.03-22.76,.03-45.51-.03-68.27,0-2.35-.25-4.76-.81-7.03-14.23-57.16-28.47-114.31-42.82-171.44-4.28-17.05-18.25-27.81-35.86-27.81-67.01-.03-134.01-.03-201.02,0-17.75,0-31.64,10.94-35.95,28.18-14.24,56.89-28.46,113.79-42.67,170.68-2.58,10.34,2.82,17.21,13.5,17.21,29,0,58.01,.07,87.01-.05,5.87-.02,9.75,2.5,12.17,7.62,.85,1.8,1.49,3.7,2.23,5.55,5.44,13.72,18.37,22.78,33.12,22.86,20.75,.12,41.5,.12,62.26,0,14.61-.08,27.43-8.98,32.94-22.54,.66-1.62,1.23-3.27,1.91-4.88,2.44-5.74,6.48-8.74,13.04-8.63,13.37,.23,26.75,.1,40.13,.06,7.53-.02,12.95-5.21,12.86-12.16-.09-6.79-5.47-11.8-12.82-11.82-14-.04-28-.08-42,.01-15.13,.1-28.15,9.21-33.58,23.3-.72,1.86-1.39,3.75-2.27,5.54-2.36,4.82-6.13,7.23-11.66,7.2-19.88-.1-39.75-.08-59.63,0-5.04,.02-8.63-2.13-11-6.43-.9-1.63-1.6-3.38-2.26-5.13-5.94-15.69-18.56-24.46-35.37-24.48-20.13-.02-40.25,0-60.38,0-4.36,0-8.73,0-13.51,0ZM179.08,125.25c.29,.17,.58,.34,.87,.52,0,1.32,0,2.64,0,3.96,0,28.24,.03,56.48-.03,84.72,0,3.95,.84,7.46,3.81,10.17,3.76,3.42,8.15,4.42,12.83,2.37,4.92-2.15,7.39-6.13,7.39-11.56,0-28.62,0-57.23,0-85.85,0-1.3,0-2.6,0-5.04,5.7,5.82,10.48,10.9,15.48,15.75,4.9,4.75,12.2,4.62,16.85-.02,4.53-4.53,4.9-11.89,.3-16.58-12.07-12.31-24.27-24.5-36.58-36.57-4.52-4.43-11.51-4.49-15.97-.11-12.49,12.24-24.92,24.56-37.08,37.13-6.13,6.33-3.09,16.76,5.3,19.34,4.71,1.45,8.9,.25,12.34-3.27,4.86-4.96,9.66-9.97,14.48-14.95Z"/><path class="cls-2" d="M39.49,227.97c4.78,0,9.15,0,13.51,0,20.13,0,40.25-.02,60.38,0,16.81,.02,29.43,8.79,35.37,24.48,.66,1.75,1.36,3.5,2.26,5.13,2.37,4.3,5.96,6.45,11,6.43,19.88-.07,39.75-.09,59.63,0,5.53,.03,9.3-2.38,11.66-7.2,.87-1.79,1.55-3.67,2.27-5.54,5.43-14.09,18.45-23.2,33.58-23.3,14-.09,28-.05,42-.01,7.35,.02,12.74,5.04,12.82,11.82,.09,6.96-5.33,12.14-12.86,12.16-13.38,.04-26.76,.18-40.13-.06-6.57-.12-10.6,2.89-13.04,8.63-.68,1.61-1.25,3.26-1.91,4.88-5.51,13.56-18.33,22.46-32.94,22.54-20.75,.12-41.5,.12-62.26,0-14.75-.08-27.67-9.14-33.12-22.86-.74-1.85-1.37-3.75-2.23-5.55-2.42-5.11-6.3-7.64-12.17-7.62-29,.12-58.01,.06-87.01,.05-10.68,0-16.08-6.87-13.5-17.21,14.21-56.9,28.43-113.79,42.67-170.68,4.31-17.24,18.21-28.17,35.95-28.18,67.01-.03,134.01-.03,201.02,0,17.61,0,31.58,10.77,35.86,27.81,14.35,57.13,28.59,114.29,42.82,171.44,.57,2.27,.81,4.68,.81,7.03,.06,22.76,.06,45.51,.03,68.27-.03,22.03-15.5,37.55-37.51,37.55-95.01,.02-190.02,.02-285.03,0-21.99,0-37.48-15.54-37.53-37.54-.01-7.25-.04-14.5,0-21.76,.05-7.34,5.09-12.68,11.91-12.72,6.81-.04,12.01,5.32,12.07,12.58,.06,7.5-.02,15,.02,22.51,.04,7.9,4.98,12.91,12.87,12.91,95.38,.02,190.77,.02,286.15,0,8.13,0,13.01-4.95,13.02-13.14,.02-22.38,.37-44.77-.2-67.14-.18-6.96-2.7-13.9-4.41-20.79-12.65-50.73-25.37-101.44-38.07-152.15-1.95-7.79-5.86-10.88-13.82-10.88-66.38,0-132.76,0-199.15,0-7.75,0-11.79,3.16-13.66,10.63-12.87,51.45-25.73,102.91-38.59,154.36-.21,.84-.33,1.69-.59,3.08Z"/><path class="cls-2" d="M179.08,125.25c-4.82,4.99-9.62,10-14.48,14.95-3.45,3.52-7.64,4.71-12.34,3.27-8.39-2.58-11.43-13.02-5.3-19.34,12.17-12.56,24.59-24.88,37.08-37.13,4.46-4.38,11.45-4.32,15.97,.11,12.31,12.07,24.51,24.26,36.58,36.57,4.59,4.69,4.23,12.05-.3,16.58-4.65,4.64-11.95,4.77-16.85,.02-5-4.85-9.78-9.93-15.48-15.75,0,2.44,0,3.74,0,5.04,0,28.62,0,57.23,0,85.85,0,5.43-2.47,9.41-7.39,11.56-4.69,2.05-9.08,1.06-12.83-2.37-2.97-2.71-3.82-6.22-3.81-10.17,.06-28.24,.03-56.48,.03-84.72,0-1.32,0-2.64,0-3.96-.29-.17-.58-.34-.87-.52Z"/></svg>